<?xml version="1.0" standalone="no"?>
<!DOCTYPE svg PUBLIC "-//W3C//DTD SVG 20010904//EN"
 "http://www.w3.org/TR/2001/REC-SVG-20010904/DTD/svg10.dtd">
<svg version="1.0" xmlns="http://www.w3.org/2000/svg"
 width="500.000000pt" height="500.000000pt" viewBox="0 0 500.000000 500.000000"
 preserveAspectRatio="xMidYMid meet">

<g transform="translate(0.000000,500.000000) scale(0.100000,-0.100000)"
fill="#3B82F6" stroke="none">
<path d="M2245 4061 c-335 -61 -593 -190 -834 -418 -137 -128 -271 -312 -341
-469 -106 -234 -150 -430 -150 -674 0 -439 172 -841 490 -1143 398 -378 956
-524 1486 -388 394 101 756 373 966 726 165 276 266 720 197 862 -27 56 -87
93 -153 93 -57 0 -93 -17 -134 -64 -34 -38 -35 -46 -52 -211 -23 -229 -91
-408 -227 -597 -191 -265 -485 -444 -812 -493 -451 -68 -908 124 -1174 493
-127 176 -191 335 -222 547 -94 645 328 1244 975 1382 61 13 129 18 240 18
258 0 465 -59 652 -187 76 -51 130 -59 193 -28 87 42 124 138 87 223 -49 112
-329 255 -617 317 -144 31 -430 37 -570 11z"/>
<path d="M4053 3685 c-18 -7 -397 -320 -843 -695 -447 -374 -820 -686 -830
-692 -15 -10 -47 15 -234 190 -248 231 -272 245 -364 207 -96 -41 -140 -142
-103 -234 16 -36 557 -548 609 -575 46 -23 128 -18 165 10 13 10 423 354 911
763 940 789 926 777 926 862 -1 47 -32 112 -66 136 -29 21 -95 43 -124 43 -8
-1 -29 -7 -47 -15z"/>
</g>
</svg>
